PathFileType	4	(X/Y/Z)	subject01_synthetic_marker_data.trc
DataRate	CameraRate	NumFrames	NumMarkers	Units	OrigDataRate	OrigDataStartFrame	OrigNumFrames
60.000000	60.000000	10	31	m	60.000000	1	73
Frame#	Time		Sternum		R.Acromium		L.Acromium		Top.Head		R.ASIS		L.ASIS		V.Sacral		R.Thigh.Upper		R.Thigh.Front		R.Thigh.Rear		R.Shank.Upper		R.Shank.Front		R.Shank.Rear		R.Heel		R.Midfoot.Sup		R.Midfoot.Lat		R.Toe.Lat		R.Toe.Med		R.Toe.Tip		L.Thigh.Upper		L.Thigh.Front		L.Thigh.Rear		L.Shank.Upper		L.Shank.Front		L.Shank.Rear		L.Heel		L.Midfoot.Sup		L.Midfoot.Lat		L.Toe.Lat		L.Toe.Med		L.Toe.Tip
			X1	Y1	Z1	X2	Y2	Z2	X3	Y3	Z3	X4	Y4	Z4	X5	Y5	Z5	X6	Y6	Z6	X7	Y7	Z7	X8	Y8	Z8	X9	Y9	Z9	X10	Y10	Z10	X11	Y11	Z11	X12	Y12	Z12	X13	Y13	Z13	X14	Y14	Z14	X15	Y15	Z15	X16	Y16	Z16	X17	Y17	Z17	X18	Y18	Z18	X19	Y19	Z19	X20	Y20	Z20	X21	Y21	Z21	X22	Y22	Z22	X23	Y23	Z23	X24	Y24	Z24	X25	Y25	Z25	X26	Y26	Z26	X27	Y27	Z27	X28	Y28	Z28	X29	Y29	Z29	X30	Y30	Z30	X31	Y31	Z31

1	0.4	0.67076	1.3961	-0.025106	0.55918	1.5484	0.12495	0.59752	1.541	-0.21402	0.72424	1.7815	-0.033277	0.61942	1.0879	0.10822	0.62987	1.071	-0.15332	0.42617	1.07	-0.018588	0.65496	0.79778	0.18009	0.74964	0.76613	0.101	0.69736	0.68388	0.17929	0.66959	0.52062	0.16806	0.72624	0.44944	0.12717	0.63944	0.43885	0.17622	0.4422	0.1963	0.076354	0.58029	0.14436	0.063503	0.54855	0.12627	0.1665	0.61661	0.064862	0.18638	0.64218	0.078185	0.081062	0.69128	0.051468	0.12108	0.55608	0.7567	-0.19202	0.64331	0.71639	-0.12644	0.54667	0.6491	-0.17142	0.50816	0.4408	-0.15739	0.5518	0.38645	-0.10577	0.48385	0.40052	-0.16382	0.38515	0.078559	-0.06021	0.5577	0.080474	-0.034331	0.53943	0.058716	-0.13006	0.60088	0.030773	-0.13494	0.61854	0.053778	-0.035652	0.66781	0.047006	-0.060034
2	0.417	0.66955	1.3943	-0.025094	0.55839	1.5469	0.12491	0.59759	1.5399	-0.21397	0.72512	1.7794	-0.032485	0.61708	1.0867	0.1069	0.62681	1.0703	-0.1547	0.42347	1.0692	-0.019425	0.6533	0.79758	0.17917	0.74872	0.76693	0.10059	0.6967	0.68406	0.17839	0.67281	0.51721	0.16709	0.73599	0.45119	0.12714	0.65032	0.43309	0.176	0.47682	0.1723	0.078	0.61919	0.13329	0.066163	0.58882	0.11337	0.16923	0.6622	0.058754	0.18999	0.68688	0.073326	0.084626	0.73807	0.051691	0.12509	0.54769	0.75543	-0.19301	0.63377	0.71296	-0.12728	0.53546	0.64814	-0.17227	0.49257	0.44072	-0.15798	0.53571	0.38607	-0.10627	0.4679	0.40065	-0.16436	0.36641	0.079407	-0.060245	0.53898	0.080528	-0.034484	0.52055	0.058771	-0.13018	0.58186	0.030533	-0.13507	0.59969	0.053544	-0.035822	0.64891	0.046517	-0.06023
3	0.433	0.66798	1.3926	-0.024858	0.55727	1.5453	0.12533	0.59616	1.5384	-0.21358	0.72436	1.7776	-0.03207	0.6148	1.0844	0.10702	0.62466	1.0695	-0.15467	0.42124	1.0678	-0.019516	0.6504	0.79572	0.17925	0.74691	0.76591	0.10168	0.69439	0.68243	0.1785	0.67446	0.51206	0.16673	0.74414	0.45209	0.12807	0.66012	0.42625	0.1763	0.51366	0.14912	0.079405	0.65921	0.12371	0.069266	0.62982	0.10192	0.17224	0.70785	0.054715	0.19421	0.7321	0.07063	0.08894	0.7847	0.054322	0.13009	0.53966	0.7541	-0.19347	0.62456	0.70939	-0.12768	0.52456	0.6472	-0.17266	0.47718	0.44079	-0.15821	0.51986	0.38578	-0.10649	0.45214	0.40094	-0.16454	0.34785	0.080376	-0.060041	0.52047	0.080678	-0.034573	0.50177	0.058994	-0.13023	0.56294	0.030463	-0.13523	0.58105	0.053404	-0.03601	0.6302	0.046139	-0.0605
4	0.45	0.6662	1.3903	-0.024253	0.55604	1.5431	0.12627	0.59436	1.5364	-0.21272	0.72332	1.7752	-0.031189	0.61291	1.0817	0.10706	0.62211	1.0689	-0.15476	0.41906	1.0657	-0.019087	0.64707	0.79247	0.1792	0.74468	0.7632	0.10282	0.69112	0.67921	0.17834	0.67505	0.50549	0.16588	0.75084	0.45238	0.12872	0.6692	0.41877	0.17623	0.55224	0.12785	0.080662	0.69966	0.11635	0.072439	0.67121	0.092714	0.17527	0.75309	0.053344	0.19858	0.77702	0.070616	0.093454	0.83042	0.05974	0.13536	0.53203	0.75271	-0.19395	0.61574	0.70589	-0.12809	0.51419	0.64624	-0.17305	0.46244	0.44093	-0.15844	0.50456	0.38551	-0.1067	0.43697	0.40135	-0.16472	0.32939	0.081555	-0.059831	0.50205	0.081	-0.034668	0.48308	0.059408	-0.1303	0.54409	0.030574	-0.1354	0.56249	0.053425	-0.036211	0.61156	0.045915	-0.060789
5	0.467	0.66433	1.3877	-0.023609	0.55464	1.5408	0.12698	0.59248	1.5338	-0.21206	0.72209	1.7725	-0.030842	0.61074	1.0774	0.10746	0.61942	1.0678	-0.15452	0.41661	1.0635	-0.018506	0.64266	0.78788	0.17859	0.74127	0.75908	0.10331	0.68655	0.67456	0.1774	0.67461	0.49777	0.16413	0.75591	0.4523	0.1285	0.6775	0.41102	0.1754	0.59194	0.10926	0.081814	0.73987	0.11178	0.075362	0.71256	0.08638	0.17808	0.79753	0.055176	0.20267	0.82097	0.0738	0.097668	0.87466	0.068397	0.14027	0.52431	0.75123	-0.19457	0.60691	0.70258	-0.12866	0.50403	0.64522	-0.17357	0.44825	0.44101	-0.15876	0.48972	0.38513	-0.10699	0.4223	0.40174	-0.16499	0.31096	0.082844	-0.059627	0.48367	0.081379	-0.034813	0.46439	0.059889	-0.1304	0.52524	0.030734	-0.13563	0.54396	0.053486	-0.036479	0.59294	0.045718	-0.061155
6	0.483	0.66328	1.3853	-0.022666	0.5542	1.5384	0.12833	0.59086	1.5315	-0.21084	0.72124	1.77	-0.030024	0.61053	1.0744	0.10777	0.61709	1.0659	-0.1543	0.41538	1.0613	-0.016691	0.63906	0.78268	0.17816	0.73805	0.75369	0.10345	0.68181	0.66893	0.17612	0.67317	0.48931	0.16177	0.75909	0.45215	0.12736	0.68493	0.40346	0.17409	0.63173	0.094151	0.083407	0.7788	0.11063	0.077952	0.75323	0.083585	0.1807	0.84058	0.060777	0.20615	0.86296	0.080691	0.10115	0.91659	0.080747	0.14416	0.51657	0.74947	-0.19421	0.59781	0.69859	-0.12828	0.49347	0.64403	-0.17328	0.43326	0.44113	-0.15861	0.47416	0.38479	-0.10689	0.4069	0.40213	-0.16486	0.29241	0.083915	-0.059575	0.46514	0.081563	-0.035015	0.44562	0.0603	-0.13061	0.50631	0.030852	-0.13596	0.52529	0.053375	-0.036807	0.5742	0.0454	-0.061565
7	0.5	0.66241	1.3825	-0.021812	0.55425	1.5357	0.12985	0.58878	1.5287	-0.20954	0.72025	1.7673	-0.02957	0.6097	1.0703	0.10944	0.61609	1.0638	-0.15269	0.41444	1.0586	-0.014999	0.63583	0.7767	0.17725	0.73449	0.74731	0.10225	0.67727	0.6625	0.17409	0.67172	0.48046	0.15898	0.76102	0.45176	0.12506	0.69211	0.39641	0.1724	0.67036	0.082758	0.085709	0.81525	0.11285	0.079911	0.79234	0.084601	0.18296	0.88145	0.070322	0.20854	0.90185	0.09115	0.10332	0.95524	0.096663	0.14627	0.50958	0.74765	-0.19357	0.58942	0.69453	-0.1277	0.48364	0.64285	-0.17276	0.41889	0.4414	-0.15829	0.45914	0.38451	-0.10667	0.39205	0.40273	-0.16456	0.27384	0.085379	-0.05945	0.4466	0.081852	-0.035253	0.42674	0.060904	-0.13084	0.48724	0.031071	-0.13638	0.50657	0.053276	-0.037224	0.55536	0.04503	-0.062099
8	0.517	0.66142	1.3792	-0.019984	0.55347	1.5322	0.13193	0.58765	1.5256	-0.2075	0.7194	1.764	-0.027447	0.6088	1.0654	0.11053	0.61455	1.0614	-0.15167	0.41322	1.0555	-0.013554	0.63361	0.77063	0.17533	0.7311	0.74048	0.099127	0.67367	0.65597	0.17115	0.67084	0.47199	0.15611	0.76216	0.45134	0.12173	0.69923	0.39047	0.1706	0.7064	0.075151	0.08895	0.84792	0.11808	0.081133	0.82866	0.089412	0.18481	0.91893	0.083594	0.2096	0.93634	0.10461	0.10388	0.98944	0.11555	0.14615	0.5027	0.74554	-0.1934	0.58118	0.69046	-0.12752	0.47419	0.6414	-0.17263	0.40516	0.44143	-0.15825	0.44463	0.38396	-0.10665	0.37778	0.40314	-0.16453	0.25525	0.08687	-0.059409	0.42802	0.082136	-0.035505	0.40786	0.061461	-0.13109	0.46814	0.031226	-0.13677	0.48779	0.053156	-0.037617	0.53649	0.044615	-0.062585
9	0.533	0.66056	1.3756	-0.018445	0.55335	1.5283	0.13432	0.58583	1.5224	-0.20529	0.71843	1.7604	-0.025415	0.60869	1.0602	0.11123	0.61279	1.0587	-0.15102	0.41231	1.052	-0.011705	0.63275	0.76473	0.17335	0.72838	0.73341	0.095279	0.67132	0.64959	0.16839	0.67078	0.46432	0.15418	0.7629	0.45076	0.11845	0.70615	0.38573	0.16946	0.73833	0.070701	0.092814	0.87559	0.12517	0.08166	0.8606	0.096833	0.18613	0.95145	0.099025	0.20933	0.96521	0.11955	0.10296	1.0179	0.13563	0.14406	0.49632	0.74313	-0.19322	0.57348	0.68631	-0.12725	0.46548	0.63964	-0.17251	0.3924	0.44114	-0.15825	0.43087	0.38302	-0.10664	0.3644	0.40331	-0.16456	0.23673	0.088314	-0.059503	0.40949	0.082356	-0.03579	0.38909	0.061982	-0.13139	0.44916	0.031344	-0.13718	0.46906	0.052971	-0.038014	0.51767	0.044139	-0.063048
10	0.55	0.66004	1.3719	-0.016027	0.55279	1.5241	0.13726	0.58515	1.5192	-0.20238	0.71767	1.7568	-0.021785	0.6082	1.0548	0.11249	0.61246	1.056	-0.14977	0.41188	1.0482	-0.010651	0.63246	0.75912	0.17154	0.72595	0.72647	0.091459	0.66962	0.64353	0.16613	0.67109	0.45759	0.15325	0.76315	0.44987	0.11568	0.71219	0.38192	0.16895	0.76489	0.068438	0.096484	0.89753	0.13257	0.081494	0.88678	0.10507	0.18671	0.97768	0.1143	0.2079	0.98774	0.13388	0.10095	1.04	0.15449	0.14063	0.49089	0.74081	-0.19318	0.56661	0.68217	-0.12712	0.45759	0.63807	-0.17253	0.38021	0.44124	-0.15841	0.41762	0.38245	-0.10676	0.35156	0.4039	-0.16475	0.21847	0.090496	-0.059776	0.39119	0.082909	-0.036189	0.37053	0.062865	-0.13181	0.43031	0.031682	-0.13769	0.45047	0.052979	-0.038496	0.49899	0.043735	-0.063576
